<svg width="16" height="16" viewBox="0 0 16 16" fill="none" xmlns="http://www.w3.org/2000/svg">
<path d="M2.00003 7.11111H3.33336V5.77778H2.00003V7.11111ZM2 10.2222H3.33333V8.88889H2V10.2222ZM2.00003 4.31112H3.33336V2.97778H2.00003V4.31112ZM4.66669 7.11111H14V5.77778H4.66669V7.11111ZM4.66667 10.2222H14V8.88889H4.66667V10.2222ZM4.66669 2.97778V4.31112H14V2.97778H4.66669ZM2.00003 7.11111H3.33336V5.77778H2.00003V7.11111ZM2 10.2222H3.33333V8.88889H2V10.2222ZM2.00003 4.31112H3.33336V2.97778H2.00003V4.31112ZM4.66669 7.11111H14V5.77778H4.66669V7.11111ZM4.66667 10.2222H14V8.88889H4.66667V10.2222ZM4.66669 2.97778V4.31112H14V2.97778H4.66669Z" fill="#424A9C"/>
<path d="M3.33336 13.3333H2.00003V12H3.33336V13.3333Z" fill="#424A9C"/>
<path d="M14 13.3333H4.66669V12H14V13.3333Z" fill="#424A9C"/>
</svg>
