<svg viewBox="0 0 24 24" fill="none" xmlns="http://www.w3.org/2000/svg">
    <path fill-rule="evenodd" clip-rule="evenodd" d="M15.3312 16.1522L15.7179 15.7074C16.5209 14.6868 17 13.3994 17 12C17 8.68629 14.3137 6 11 6C7.68629 6 5 8.68629 5 12C5 15.3137 7.68629 18 11 18C12.7024 18 14.2391 17.291 15.3312 16.1522ZM17.7252 16.3344L21.3981 19.5271L20.0133 21.1201L16.3569 17.9417C14.9388 19.2211 13.0604 20 11 20C6.58172 20 3 16.4183 3 12C3 7.58172 6.58172 4 11 4C15.4183 4 19 7.58172 19 12C19 13.5974 18.5318 15.0854 17.7252 16.3344Z" fill="#424A9C"/>
</svg>
    