<svg width="16" height="16" viewBox="0 0 16 16" fill="none" xmlns="http://www.w3.org/2000/svg">
<path fill-rule="evenodd" clip-rule="evenodd" d="M4.66667 3.33335H3.33333V12.6667H7.33333V14H3.33333C2.6 14 2 13.4 2 12.6667V3.33335C2 2.60002 2.6 2.00002 3.33333 2.00002H6.12C6.4 1.22669 7.13333 0.666687 8 0.666687C8.86667 0.666687 9.6 1.22669 9.88 2.00002H12.6667C13.4 2.00002 14 2.60002 14 3.33335V6.66669H12.6667V3.33335H11.3333V5.33335H4.66667V3.33335ZM8.66667 2.66669C8.66667 2.30002 8.36667 2.00002 8 2.00002C7.63333 2.00002 7.33333 2.30002 7.33333 2.66669C7.33333 3.03335 7.63333 3.33335 8 3.33335C8.36667 3.33335 8.66667 3.03335 8.66667 2.66669ZM10.34 11.3334L14 7.66669L15 8.66669L10.34 13.3334L7.33333 10.3334L8.33333 9.33335L10.34 11.3334Z" fill="white"/>
</svg>
