<svg width="16" height="16" viewBox="0 0 16 16" fill="none" xmlns="http://www.w3.org/2000/svg">
<path d="M7.99992 1.33337C4.33325 1.33337 1.33325 4.33337 1.33325 8.00004C1.33325 11.6667 4.33325 14.6667 7.99992 14.6667C11.6666 14.6667 14.6666 11.6667 14.6666 8.00004C14.6666 4.33337 11.6666 1.33337 7.99992 1.33337ZM7.99992 13.3334C5.05992 13.3334 2.66659 10.94 2.66659 8.00004C2.66659 5.06004 5.05992 2.66671 7.99992 2.66671C10.9399 2.66671 13.3333 5.06004 13.3333 8.00004C13.3333 10.94 10.9399 13.3334 7.99992 13.3334ZM8.33325 4.66671H7.33325V8.66671L10.7999 10.8L11.3333 9.93337L8.33325 8.13337V4.66671Z" fill="#585A66"/>
</svg>
