<svg  viewBox="0 0 32 32" fill="none" xmlns="http://www.w3.org/2000/svg">
<path d="M16 22.9667C16.3778 22.9667 16.7 22.8278 16.9667 22.55C17.2333 22.2722 17.3667 21.9444 17.3667 21.5667C17.3667 21.2111 17.2333 20.8944 16.9667 20.6167C16.7 20.3389 16.3778 20.2 16 20.2C15.6222 20.2 15.3 20.3389 15.0333 20.6167C14.7667 20.8944 14.6333 21.2111 14.6333 21.5667C14.6333 21.9444 14.7667 22.2722 15.0333 22.55C15.3 22.8278 15.6222 22.9667 16 22.9667ZM14.9 18.2333H17.1V8.8H14.9V18.2333ZM10.8 28.4667L3.53333 21.2V10.8L10.8 3.5H21.2L28.5 10.8V21.2L21.2 28.4667H10.8ZM11.9 25.8333H20.1L25.8333 20.1V11.9L20.1 6.16667H11.9L6.16666 11.9V20.1L11.9 25.8333Z" fill="white"/>
</svg>
