<svg width="256" height="32" viewBox="0 0 256 32" fill="none" xmlns="http://www.w3.org/2000/svg">
<path fill-rule="evenodd" clip-rule="evenodd" d="M3 16.0726C3 22.5358 7.69408 27.9102 13.8333 29V19.6108H10.5833V16H13.8333V13.1108C13.8333 9.86075 15.9274 8.05592 18.8893 8.05592C19.8274 8.05592 20.8393 8.2 21.7774 8.34408V11.6667H20.1167C18.5274 11.6667 18.1667 12.4608 18.1667 13.4726V16H21.6333L21.0559 19.6108H18.1667V29C24.3059 27.9102 29 22.5368 29 16.0726C29 8.8825 23.15 3 16 3C8.85 3 3 8.8825 3 16.0726Z" fill="#424A9C"/>
<path d="M71.9968 11.9983C69.7933 11.9983 67.9951 13.7965 67.9951 16C67.9951 18.2035 69.7933 20.0017 71.9968 20.0017C74.2002 20.0017 75.9984 18.2035 75.9984 16C75.9984 13.7965 74.2002 11.9983 71.9968 11.9983ZM83.9987 16C83.9987 14.3429 84.0137 12.7008 83.9206 11.0467C83.8275 9.12536 83.3893 7.4202 81.9843 6.01525C80.5764 4.6073 78.8743 4.17201 76.953 4.07895C75.2959 3.98588 73.6539 4.00089 71.9998 4.00089C70.3427 4.00089 68.7006 3.98588 67.0465 4.07895C65.1253 4.17201 63.4201 4.6103 62.0152 6.01525C60.6073 7.42321 60.172 9.12536 60.0789 11.0467C59.9859 12.7038 60.0009 14.3459 60.0009 16C60.0009 17.6541 59.9859 19.2992 60.0789 20.9533C60.172 22.8746 60.6103 24.5798 62.0152 25.9847C63.4231 27.3927 65.1253 27.828 67.0465 27.9211C68.7036 28.0141 70.3457 27.9991 71.9998 27.9991C73.6569 27.9991 75.2989 28.0141 76.953 27.9211C78.8743 27.828 80.5794 27.3897 81.9843 25.9847C83.3923 24.5768 83.8275 22.8746 83.9206 20.9533C84.0167 19.2992 83.9987 17.6571 83.9987 16ZM71.9968 22.1572C68.5895 22.1572 65.8397 19.4073 65.8397 16C65.8397 12.5927 68.5895 9.84284 71.9968 9.84284C75.404 9.84284 78.1538 12.5927 78.1538 16C78.1538 19.4073 75.404 22.1572 71.9968 22.1572ZM78.406 11.0286C77.6105 11.0286 76.968 10.3862 76.968 9.59067C76.968 8.79513 77.6105 8.1527 78.406 8.1527C79.2015 8.1527 79.8439 8.79513 79.8439 9.59067C79.8442 9.77957 79.8071 9.96667 79.735 10.1412C79.6628 10.3158 79.5569 10.4744 79.4233 10.608C79.2897 10.7416 79.1311 10.8475 78.9565 10.9197C78.782 10.9918 78.5949 11.0289 78.406 11.0286Z" fill="#424A9C"/>
<path d="M142 7.6096C141.007 8.05059 139.94 8.34856 138.819 8.48324C139.976 7.78933 140.842 6.69719 141.254 5.41062C140.167 6.05779 138.978 6.51332 137.737 6.75742C136.903 5.86456 135.798 5.27275 134.593 5.07389C133.389 4.87502 132.153 5.08022 131.077 5.65763C130.001 6.23505 129.145 7.15236 128.643 8.26716C128.14 9.38195 128.019 10.6319 128.298 11.8228C126.095 11.712 123.94 11.1382 121.973 10.1386C120.006 9.13907 118.271 7.73613 116.88 6.02085C116.404 6.84324 116.131 7.79672 116.131 8.81219C116.13 9.72634 116.355 10.6265 116.785 11.4328C117.215 12.2391 117.836 12.9265 118.595 13.4342C117.715 13.4062 116.855 13.1679 116.086 12.7394V12.8109C116.086 14.093 116.528 15.3357 117.338 16.3281C118.148 17.3204 119.276 18.0014 120.529 18.2553C119.713 18.4767 118.858 18.5093 118.027 18.3507C118.381 19.4539 119.07 20.4186 119.998 21.1097C120.926 21.8009 122.047 22.1839 123.203 22.2051C121.24 23.7491 118.817 24.5866 116.322 24.5829C115.88 24.583 115.439 24.5571 115 24.5054C117.532 26.1373 120.48 27.0034 123.49 27C133.681 27 139.252 18.5402 139.252 11.2031C139.252 10.9647 139.246 10.7239 139.235 10.4856C140.319 9.7001 141.254 8.72744 141.998 7.61318L142 7.6096Z" fill="#424A9C"/>
<path d="M198.372 9.138C198.202 8.53242 197.871 7.98415 197.414 7.55149C196.945 7.10552 196.369 6.78651 195.742 6.62456C193.395 6.00619 183.991 6.00619 183.991 6.00619C180.071 5.96161 176.152 6.15769 172.255 6.59333C171.628 6.76724 171.054 7.09338 170.583 7.54274C170.121 7.98747 169.786 8.53588 169.611 9.13675C169.19 11.4 168.986 13.6981 169.001 16C168.986 18.2998 169.189 20.5971 169.611 22.8632C169.782 23.4616 170.116 24.0075 170.579 24.4485C171.043 24.8895 171.62 25.208 172.255 25.3767C174.634 25.9938 183.991 25.9938 183.991 25.9938C187.917 26.0384 191.841 25.8424 195.742 25.4067C196.369 25.2447 196.945 24.9257 197.414 24.4797C197.871 24.0472 198.201 23.4988 198.371 22.8932C198.802 20.6308 199.012 18.3318 198.997 16.0287C199.029 13.7159 198.82 11.406 198.372 9.13675V9.138ZM181.002 20.2773V11.7239L188.826 16.0012L181.002 20.2773Z" fill="#424A9C"/>
<path fill-rule="evenodd" clip-rule="evenodd" d="M228 6.00509C228 5.47331 228.211 4.96331 228.587 4.58728C228.963 4.21125 229.473 4 230.005 4H249.993C250.256 3.99957 250.517 4.05113 250.761 4.15171C251.004 4.2523 251.226 4.39994 251.412 4.58619C251.599 4.77243 251.747 4.99363 251.847 5.2371C251.948 5.48058 252 5.74156 252 6.00509V25.9927C252 26.2563 251.949 26.5174 251.848 26.761C251.747 27.0046 251.599 27.2259 251.413 27.4123C251.227 27.5988 251.006 27.7466 250.762 27.8475C250.518 27.9483 250.257 28.0001 249.994 28H230.005C229.742 28 229.481 27.9481 229.238 27.8473C228.994 27.7464 228.773 27.5986 228.587 27.4123C228.401 27.226 228.253 27.0049 228.152 26.7615C228.052 26.5181 228 26.2572 228 25.9938V6.00509ZM237.5 13.1505H240.749V14.7825C241.219 13.8444 242.419 13 244.222 13C247.679 13 248.498 14.8687 248.498 18.2975V24.6487H245V19.0785C245 17.1258 244.531 16.024 243.339 16.024C241.687 16.024 240.999 17.212 240.999 19.0785V24.6487H237.5V13.1505ZM231.5 24.4993H234.999V13H231.5V24.4982V24.4993ZM235.5 9.24946C235.507 9.5491 235.453 9.84704 235.343 10.1258C235.233 10.4046 235.068 10.6585 234.859 10.8728C234.649 11.087 234.399 11.2572 234.123 11.3735C233.846 11.4897 233.55 11.5495 233.25 11.5495C232.95 11.5495 232.654 11.4897 232.377 11.3735C232.101 11.2572 231.851 11.087 231.641 10.8728C231.432 10.6585 231.267 10.4046 231.157 10.1258C231.047 9.84704 230.993 9.5491 231 9.24946C231.013 8.6613 231.256 8.10159 231.676 7.69021C232.097 7.27882 232.662 7.04846 233.25 7.04846C233.838 7.04846 234.403 7.27882 234.824 7.69021C235.244 8.10159 235.487 8.6613 235.5 9.24946Z" fill="#424A9C"/>
</svg>
