<svg width="16" height="16" viewBox="0 0 16 16" fill="none" xmlns="http://www.w3.org/2000/svg">
<path fill-rule="evenodd" clip-rule="evenodd" d="M11.2667 5V2.42857C11.2667 2.19286 11.4767 2 11.7334 2H14.5334C14.7901 2 15.0001 2.19286 15.0001 2.42857V5C15.0001 5.23572 14.7901 5.42857 14.5334 5.42857H13.8333V6.28571H14.5334C14.7901 6.28571 15.0001 6.47857 15.0001 6.71429V9.28571C15.0001 9.52143 14.7901 9.71429 14.5334 9.71429H13.8333V10.5714H14.5334C14.7901 10.5714 15.0001 10.7643 15.0001 11V13.5714C15.0001 13.8071 14.7901 14 14.5334 14H11.7334C11.4767 14 11.2667 13.8071 11.2667 13.5714V11C11.2667 10.7643 11.4767 10.5714 11.7334 10.5714H12.4333L12.4333 9.71429H11.7334C11.4767 9.71429 11.2667 9.52143 11.2667 9.28571V8.64286H9.40243L7.5871 10.31L6.6001 9.39714L8.1191 8.00214L6.6001 6.60714L7.5871 5.69428L9.39777 7.35714H11.2667V6.71429C11.2667 6.47857 11.4767 6.28571 11.7334 6.28571H12.4333L12.4333 5.42857H11.7334C11.4767 5.42857 11.2667 5.23572 11.2667 5ZM13.8801 4.4V3.02857L12.3867 3.02857V4.4H13.8801ZM13.8801 12.9714V11.6H12.3867V12.9714H13.8801ZM13.8801 7.31429V8.68571L12.3867 8.68571V7.31429H13.8801ZM4.5 9.39714L2.981 8.00214L4.5 6.60714L3.513 5.69428L1 8.00214L3.513 10.31L4.5 9.39714Z" fill="#424A9C"/>
</svg>
