<svg width="16" height="16" viewBox="0 0 16 16" fill="none" xmlns="http://www.w3.org/2000/svg">
<path d="M13.1852 1.3335H2.81486C2.00004 1.3335 1.33337 2.00016 1.33337 2.81498V13.1853C1.33337 14.0002 2.00004 14.6668 2.81486 14.6668H13.1852C14 14.6668 14.6667 14.0002 14.6667 13.1853V2.81498C14.6667 2.00016 14 1.3335 13.1852 1.3335ZM13.1852 2.81498V13.1853H2.81486V2.81498H13.1852ZM12.3704 9.11127C12.1482 8.7409 11.6297 8.59276 10.7408 8.59276C10.4445 8.59276 10.1482 8.59276 9.85189 8.66683C9.62967 8.51868 9.40745 8.37053 9.2593 8.22239C8.81486 7.85202 8.37041 7.18535 8.14819 6.37053V6.29646C8.37041 5.3335 8.59263 4.22238 8.14819 3.70387C7.92597 3.62979 7.77782 3.55572 7.62967 3.55572H7.48152C7.18523 3.55572 6.963 3.85201 6.88893 4.07424C6.59263 5.0372 6.81486 5.55572 7.03708 6.44461C6.88893 7.11127 6.59263 7.77794 6.29634 8.51868C6.00004 9.0372 5.77782 9.48164 5.5556 9.85201C5.2593 10.0002 5.03708 10.0742 4.88893 10.2224C4.07412 10.7409 3.62967 11.3335 3.5556 11.7039V12.0742L3.92597 12.2965C4.07411 12.4446 4.14819 12.4446 4.29634 12.4446C4.88893 12.4446 5.5556 11.7779 6.44449 10.2224H6.51856C7.2593 10.0002 8.14819 9.85202 9.40745 9.70387C10.1482 10.0742 11.0371 10.2224 11.5556 10.2224C11.8519 10.2224 12.0741 10.1483 12.2223 10.0002C12.3704 9.85201 12.4445 9.70387 12.4445 9.55572C12.4445 9.3335 12.4445 9.18535 12.3704 9.11127ZM4.14819 11.9261C4.14819 11.6298 4.51856 11.1853 5.03708 10.7409C5.11115 10.6668 5.2593 10.5928 5.40745 10.5187C4.88893 11.3335 4.44449 11.852 4.14819 11.9261ZM7.48152 4.07424C7.48152 4.07424 7.48152 4.00016 7.5556 4.00016H7.62967C7.77782 4.14831 7.77782 4.37053 7.70374 4.81498V4.96313C7.62967 5.11127 7.62967 5.3335 7.5556 5.55572C7.33337 4.88905 7.33337 4.37053 7.48152 4.07424ZM6.59263 9.70387H6.51856C6.59263 9.48164 6.74078 9.25942 6.88893 8.96313C7.18523 8.37053 7.48152 7.77794 7.62967 7.25942C7.92597 7.92609 8.29634 8.44461 8.74078 8.81498C8.81486 8.88905 8.963 8.96313 9.03708 9.0372C8.37041 9.11127 7.48152 9.3335 6.59263 9.70387ZM11.926 9.62979H11.7778C11.4815 9.62979 10.963 9.48164 10.4445 9.25942C10.5186 9.18535 10.5926 9.18535 10.5926 9.18535C11.6297 9.18535 11.8519 9.3335 11.926 9.40757L12 9.48164C12 9.62979 12 9.62979 11.926 9.62979Z" fill="#424A9C"/>
</svg>
