<svg width="16" height="16" viewBox="0 0 16 16" fill="none" xmlns="http://www.w3.org/2000/svg">
<path d="M10.3333 11.3334V4.66666C10.3333 3.22134 8.19658 2 5.66666 2C3.13675 2 1 3.22134 1 4.66666V11.3334C1 12.7786 3.13675 14 5.66666 14C8.19658 14 10.3333 12.7786 10.3333 11.3334ZM5.66666 3.33333C7.81975 3.33333 9.12641 4.338 9.16666 4.66267C9.12641 4.99533 7.81975 6 5.66666 6C3.51358 6 2.20692 4.99533 2.16667 4.67067C2.20692 4.338 3.51358 3.33333 5.66666 3.33333ZM2.16667 6.40467C3.02942 6.96932 4.28825 7.33334 5.66666 7.33334C7.04508 7.33334 8.30391 6.96932 9.16666 6.40467V7.99598C9.12641 8.32868 7.81975 9.33332 5.66666 9.33332C3.51358 9.33332 2.20692 8.32868 2.16667 8V6.40467ZM2.16667 11.3334V9.73802C3.02942 10.3027 4.28825 10.6666 5.66666 10.6666C7.04508 10.6666 8.30391 10.3027 9.16666 9.73802V11.3293C9.12641 11.662 7.81975 12.6667 5.66666 12.6667C3.51358 12.6667 2.20692 11.662 2.16667 11.3334Z" fill="white"/>
<path d="M10.3333 7.30769V8.69231H12.2V10.7692L15 8L12.2 5.23077V7.30769H10.3333Z" fill="white"/>
</svg>
