<svg width="16" height="17" viewBox="0 0 16 17" fill="none" xmlns="http://www.w3.org/2000/svg">
<path d="M10.3333 9.76113H9.80667L9.62 9.58113C10.2733 8.82113 10.6667 7.83446 10.6667 6.76113C10.6667 4.3678 8.72667 2.4278 6.33333 2.4278C3.94 2.4278 2 4.3678 2 6.76113C2 9.15446 3.94 11.0945 6.33333 11.0945C7.40667 11.0945 8.39333 10.7011 9.15333 10.0478L9.33333 10.2345V10.7611L12.6667 14.0878L13.66 13.0945L10.3333 9.76113ZM6.33333 9.76113C4.67333 9.76113 3.33333 8.42113 3.33333 6.76113C3.33333 5.10113 4.67333 3.76113 6.33333 3.76113C7.99333 3.76113 9.33333 5.10113 9.33333 6.76113C9.33333 8.42113 7.99333 9.76113 6.33333 9.76113Z" fill="white"/>
</svg>
